<mxfile host="Electron" agent="Mozilla/5.0 (Windows NT 10.0; Win64; x64) AppleWebKit/537.36 (KHTML, like Gecko) draw.io/28.0.6 Chrome/138.0.7204.100 Electron/37.2.3 Safari/537.36" version="28.0.6">
  <diagram name="Page-1" id="h-mz_bpWiZiK54qtuoT6">
    <mxGraphModel dx="1025" dy="516" grid="1" gridSize="10" guides="1" tooltips="1" connect="1" arrows="1" fold="1" page="1" pageScale="1" pageWidth="850" pageHeight="1100" math="0" shadow="0">
      <root>
        <mxCell id="0" />
        <mxCell id="1" parent="0" />
        <mxCell id="T4dPyZAs8oy9ECvy9q90-1" value="" style="rounded=1;whiteSpace=wrap;html=1;" vertex="1" parent="1">
          <mxGeometry x="191.68" y="140" width="120" height="170" as="geometry" />
        </mxCell>
        <mxCell id="T4dPyZAs8oy9ECvy9q90-2" value="" style="endArrow=none;html=1;rounded=0;entryX=1;entryY=0.25;entryDx=0;entryDy=0;" edge="1" parent="1">
          <mxGeometry width="50" height="50" relative="1" as="geometry">
            <mxPoint x="194" y="180" as="sourcePoint" />
            <mxPoint x="311.68000000000006" y="182.5" as="targetPoint" />
            <Array as="points">
              <mxPoint x="241.68" y="180" />
            </Array>
          </mxGeometry>
        </mxCell>
        <mxCell id="T4dPyZAs8oy9ECvy9q90-3" value="USERS" style="text;html=1;align=center;verticalAlign=middle;whiteSpace=wrap;rounded=0;" vertex="1" parent="1">
          <mxGeometry x="221.68" y="150" width="60" height="30" as="geometry" />
        </mxCell>
        <mxCell id="T4dPyZAs8oy9ECvy9q90-4" value="User Id" style="text;html=1;align=center;verticalAlign=middle;whiteSpace=wrap;rounded=0;" vertex="1" parent="1">
          <mxGeometry x="201.68" y="190" width="88.32" height="20" as="geometry" />
        </mxCell>
        <mxCell id="T4dPyZAs8oy9ECvy9q90-5" value="Name" style="text;html=1;align=center;verticalAlign=middle;whiteSpace=wrap;rounded=0;" vertex="1" parent="1">
          <mxGeometry x="221.68" y="210" width="60" height="30" as="geometry" />
        </mxCell>
        <mxCell id="T4dPyZAs8oy9ECvy9q90-7" value="Role" style="text;html=1;align=center;verticalAlign=middle;whiteSpace=wrap;rounded=0;" vertex="1" parent="1">
          <mxGeometry x="221.68" y="240" width="60" height="20" as="geometry" />
        </mxCell>
        <mxCell id="T4dPyZAs8oy9ECvy9q90-44" style="edgeStyle=orthogonalEdgeStyle;rounded=0;orthogonalLoop=1;jettySize=auto;html=1;exitX=1;exitY=0.5;exitDx=0;exitDy=0;entryX=0;entryY=0.5;entryDx=0;entryDy=0;" edge="1" parent="1" source="T4dPyZAs8oy9ECvy9q90-9" target="T4dPyZAs8oy9ECvy9q90-26">
          <mxGeometry relative="1" as="geometry" />
        </mxCell>
        <mxCell id="T4dPyZAs8oy9ECvy9q90-9" value="room Id" style="text;html=1;align=center;verticalAlign=middle;whiteSpace=wrap;rounded=0;" vertex="1" parent="1">
          <mxGeometry x="221.68" y="260" width="60" height="20" as="geometry" />
        </mxCell>
        <mxCell id="T4dPyZAs8oy9ECvy9q90-10" value="paymentStatus" style="text;html=1;align=center;verticalAlign=middle;whiteSpace=wrap;rounded=0;" vertex="1" parent="1">
          <mxGeometry x="221.68" y="280" width="60" height="20" as="geometry" />
        </mxCell>
        <mxCell id="T4dPyZAs8oy9ECvy9q90-11" style="edgeStyle=orthogonalEdgeStyle;rounded=0;orthogonalLoop=1;jettySize=auto;html=1;exitX=0.5;exitY=1;exitDx=0;exitDy=0;" edge="1" parent="1" source="T4dPyZAs8oy9ECvy9q90-3" target="T4dPyZAs8oy9ECvy9q90-3">
          <mxGeometry relative="1" as="geometry" />
        </mxCell>
        <mxCell id="T4dPyZAs8oy9ECvy9q90-14" value="" style="rounded=1;whiteSpace=wrap;html=1;" vertex="1" parent="1">
          <mxGeometry x="460" y="130" width="120" height="170" as="geometry" />
        </mxCell>
        <mxCell id="T4dPyZAs8oy9ECvy9q90-15" value="" style="endArrow=none;html=1;rounded=0;entryX=1;entryY=0.25;entryDx=0;entryDy=0;" edge="1" parent="1">
          <mxGeometry width="50" height="50" relative="1" as="geometry">
            <mxPoint x="462.32" y="170" as="sourcePoint" />
            <mxPoint x="580" y="172.5" as="targetPoint" />
            <Array as="points">
              <mxPoint x="510" y="170" />
            </Array>
          </mxGeometry>
        </mxCell>
        <mxCell id="T4dPyZAs8oy9ECvy9q90-16" value="payments" style="text;html=1;align=center;verticalAlign=middle;whiteSpace=wrap;rounded=0;" vertex="1" parent="1">
          <mxGeometry x="490" y="140" width="60" height="30" as="geometry" />
        </mxCell>
        <mxCell id="T4dPyZAs8oy9ECvy9q90-45" style="edgeStyle=orthogonalEdgeStyle;rounded=0;orthogonalLoop=1;jettySize=auto;html=1;exitX=1;exitY=0.5;exitDx=0;exitDy=0;entryX=0;entryY=0.5;entryDx=0;entryDy=0;" edge="1" parent="1" source="T4dPyZAs8oy9ECvy9q90-17" target="T4dPyZAs8oy9ECvy9q90-35">
          <mxGeometry relative="1" as="geometry" />
        </mxCell>
        <mxCell id="T4dPyZAs8oy9ECvy9q90-17" value="User Id" style="text;html=1;align=center;verticalAlign=middle;whiteSpace=wrap;rounded=0;" vertex="1" parent="1">
          <mxGeometry x="470" y="180" width="100" height="20" as="geometry" />
        </mxCell>
        <mxCell id="T4dPyZAs8oy9ECvy9q90-18" value="amount" style="text;html=1;align=center;verticalAlign=middle;whiteSpace=wrap;rounded=0;" vertex="1" parent="1">
          <mxGeometry x="490" y="200" width="60" height="30" as="geometry" />
        </mxCell>
        <mxCell id="T4dPyZAs8oy9ECvy9q90-19" value="date" style="text;html=1;align=center;verticalAlign=middle;whiteSpace=wrap;rounded=0;" vertex="1" parent="1">
          <mxGeometry x="490" y="230" width="60" height="20" as="geometry" />
        </mxCell>
        <mxCell id="T4dPyZAs8oy9ECvy9q90-20" value="balance" style="text;html=1;align=center;verticalAlign=middle;whiteSpace=wrap;rounded=0;" vertex="1" parent="1">
          <mxGeometry x="490" y="250" width="60" height="20" as="geometry" />
        </mxCell>
        <mxCell id="T4dPyZAs8oy9ECvy9q90-21" value="status" style="text;html=1;align=center;verticalAlign=middle;whiteSpace=wrap;rounded=0;" vertex="1" parent="1">
          <mxGeometry x="489" y="270" width="60" height="20" as="geometry" />
        </mxCell>
        <mxCell id="T4dPyZAs8oy9ECvy9q90-22" style="edgeStyle=orthogonalEdgeStyle;rounded=0;orthogonalLoop=1;jettySize=auto;html=1;exitX=0.5;exitY=1;exitDx=0;exitDy=0;" edge="1" parent="1" source="T4dPyZAs8oy9ECvy9q90-16" target="T4dPyZAs8oy9ECvy9q90-16">
          <mxGeometry relative="1" as="geometry" />
        </mxCell>
        <mxCell id="T4dPyZAs8oy9ECvy9q90-23" value="" style="rounded=1;whiteSpace=wrap;html=1;" vertex="1" parent="1">
          <mxGeometry x="330" y="420" width="120" height="170" as="geometry" />
        </mxCell>
        <mxCell id="T4dPyZAs8oy9ECvy9q90-24" value="" style="endArrow=none;html=1;rounded=0;entryX=1;entryY=0.25;entryDx=0;entryDy=0;" edge="1" parent="1">
          <mxGeometry width="50" height="50" relative="1" as="geometry">
            <mxPoint x="332.32" y="460" as="sourcePoint" />
            <mxPoint x="450" y="462.5" as="targetPoint" />
            <Array as="points">
              <mxPoint x="380" y="460" />
            </Array>
          </mxGeometry>
        </mxCell>
        <mxCell id="T4dPyZAs8oy9ECvy9q90-25" value="ROOMS" style="text;html=1;align=center;verticalAlign=middle;whiteSpace=wrap;rounded=0;" vertex="1" parent="1">
          <mxGeometry x="360" y="430" width="60" height="30" as="geometry" />
        </mxCell>
        <mxCell id="T4dPyZAs8oy9ECvy9q90-46" style="edgeStyle=orthogonalEdgeStyle;rounded=0;orthogonalLoop=1;jettySize=auto;html=1;entryX=0;entryY=0.5;entryDx=0;entryDy=0;" edge="1" parent="1" source="T4dPyZAs8oy9ECvy9q90-26" target="T4dPyZAs8oy9ECvy9q90-37">
          <mxGeometry relative="1" as="geometry" />
        </mxCell>
        <mxCell id="T4dPyZAs8oy9ECvy9q90-26" value="room Id" style="text;html=1;align=center;verticalAlign=middle;whiteSpace=wrap;rounded=0;" vertex="1" parent="1">
          <mxGeometry x="340" y="470" width="90" height="20" as="geometry" />
        </mxCell>
        <mxCell id="T4dPyZAs8oy9ECvy9q90-27" value="number" style="text;html=1;align=center;verticalAlign=middle;whiteSpace=wrap;rounded=0;" vertex="1" parent="1">
          <mxGeometry x="360" y="490" width="60" height="30" as="geometry" />
        </mxCell>
        <mxCell id="T4dPyZAs8oy9ECvy9q90-28" value="capacity" style="text;html=1;align=center;verticalAlign=middle;whiteSpace=wrap;rounded=0;" vertex="1" parent="1">
          <mxGeometry x="360" y="520" width="60" height="20" as="geometry" />
        </mxCell>
        <mxCell id="T4dPyZAs8oy9ECvy9q90-29" value="isOccupied" style="text;html=1;align=center;verticalAlign=middle;whiteSpace=wrap;rounded=0;" vertex="1" parent="1">
          <mxGeometry x="360" y="540" width="60" height="20" as="geometry" />
        </mxCell>
        <mxCell id="T4dPyZAs8oy9ECvy9q90-30" value="occupants[]" style="text;html=1;align=center;verticalAlign=middle;whiteSpace=wrap;rounded=0;" vertex="1" parent="1">
          <mxGeometry x="360" y="560" width="60" height="20" as="geometry" />
        </mxCell>
        <mxCell id="T4dPyZAs8oy9ECvy9q90-31" style="edgeStyle=orthogonalEdgeStyle;rounded=0;orthogonalLoop=1;jettySize=auto;html=1;exitX=0.5;exitY=1;exitDx=0;exitDy=0;" edge="1" parent="1" source="T4dPyZAs8oy9ECvy9q90-25" target="T4dPyZAs8oy9ECvy9q90-25">
          <mxGeometry relative="1" as="geometry" />
        </mxCell>
        <mxCell id="T4dPyZAs8oy9ECvy9q90-32" value="" style="rounded=1;whiteSpace=wrap;html=1;" vertex="1" parent="1">
          <mxGeometry x="640" y="480" width="120" height="170" as="geometry" />
        </mxCell>
        <mxCell id="T4dPyZAs8oy9ECvy9q90-33" value="" style="endArrow=none;html=1;rounded=0;entryX=1;entryY=0.25;entryDx=0;entryDy=0;" edge="1" parent="1">
          <mxGeometry width="50" height="50" relative="1" as="geometry">
            <mxPoint x="642.3199999999999" y="520" as="sourcePoint" />
            <mxPoint x="760" y="522.5" as="targetPoint" />
            <Array as="points">
              <mxPoint x="690" y="520" />
            </Array>
          </mxGeometry>
        </mxCell>
        <mxCell id="T4dPyZAs8oy9ECvy9q90-34" value="complaints" style="text;html=1;align=center;verticalAlign=middle;whiteSpace=wrap;rounded=0;" vertex="1" parent="1">
          <mxGeometry x="670" y="490" width="60" height="30" as="geometry" />
        </mxCell>
        <mxCell id="T4dPyZAs8oy9ECvy9q90-35" value="User Id" style="text;html=1;align=center;verticalAlign=middle;whiteSpace=wrap;rounded=0;" vertex="1" parent="1">
          <mxGeometry x="650" y="530" width="100" height="20" as="geometry" />
        </mxCell>
        <mxCell id="T4dPyZAs8oy9ECvy9q90-36" value="description" style="text;html=1;align=center;verticalAlign=middle;whiteSpace=wrap;rounded=0;" vertex="1" parent="1">
          <mxGeometry x="670" y="550" width="60" height="30" as="geometry" />
        </mxCell>
        <mxCell id="T4dPyZAs8oy9ECvy9q90-37" value="room Id" style="text;html=1;align=center;verticalAlign=middle;whiteSpace=wrap;rounded=0;" vertex="1" parent="1">
          <mxGeometry x="670" y="580" width="60" height="20" as="geometry" />
        </mxCell>
        <mxCell id="T4dPyZAs8oy9ECvy9q90-38" value="status" style="text;html=1;align=center;verticalAlign=middle;whiteSpace=wrap;rounded=0;" vertex="1" parent="1">
          <mxGeometry x="670" y="600" width="60" height="20" as="geometry" />
        </mxCell>
        <mxCell id="T4dPyZAs8oy9ECvy9q90-39" value="date" style="text;html=1;align=center;verticalAlign=middle;whiteSpace=wrap;rounded=0;" vertex="1" parent="1">
          <mxGeometry x="670" y="620" width="60" height="20" as="geometry" />
        </mxCell>
        <mxCell id="T4dPyZAs8oy9ECvy9q90-40" style="edgeStyle=orthogonalEdgeStyle;rounded=0;orthogonalLoop=1;jettySize=auto;html=1;exitX=0.5;exitY=1;exitDx=0;exitDy=0;" edge="1" parent="1" source="T4dPyZAs8oy9ECvy9q90-34" target="T4dPyZAs8oy9ECvy9q90-34">
          <mxGeometry relative="1" as="geometry" />
        </mxCell>
        <mxCell id="T4dPyZAs8oy9ECvy9q90-43" style="edgeStyle=orthogonalEdgeStyle;rounded=0;orthogonalLoop=1;jettySize=auto;html=1;exitX=1;exitY=0.5;exitDx=0;exitDy=0;entryX=0.077;entryY=0.25;entryDx=0;entryDy=0;entryPerimeter=0;" edge="1" parent="1" source="T4dPyZAs8oy9ECvy9q90-4" target="T4dPyZAs8oy9ECvy9q90-17">
          <mxGeometry relative="1" as="geometry" />
        </mxCell>
      </root>
    </mxGraphModel>
  </diagram>
</mxfile>
